<?xml version="1.0" encoding="utf-8"?>
<!-- Generator: Adobe Illustrator 24.1.1, SVG Export Plug-In . SVG Version: 6.00 Build 0)  -->
<svg version="1.1" id="Calque_1" xmlns="http://www.w3.org/2000/svg" xmlns:xlink="http://www.w3.org/1999/xlink" x="0px" y="0px"
	 viewBox="0 0 160 150" style="enable-background:new 0 0 160 150;" xml:space="preserve">
<style type="text/css">
	.st0{fill:#FFA333;}
</style>
<path class="st0" d="M26.5,137.4c11.4,11.3,29.9,10.1,31.1,10c10.3-0.8,12.6-5.1,24.6-4.9c6.3,0.1,6.1,1.3,16,2.4
	c12.1,1.3,19.4,2.1,27.3-1c9.7-3.8,15-11.5,16.3-13.5c6.1-9.3,2.7-14.2,5.6-30.6c3.9-21.6,12.4-28.3,12.3-48.4
	c0-5.6-0.7-9.6-2.8-13.5c-3.8-6.9-8.9-7.4-15.6-14.2c-8.1-8.3-4.7-11.6-10.7-16.9c-9.4-8.2-17.1,0.7-40.6-4.8c0,0-13.8-3.1-22.7,0.2
	c-3.9,1.4-4,2.4-8.1,4.4C54.2,8.9,40,8.3,30.4,11.6c-11.3,3.7-17.1,14-18.4,16.3C7.7,35.5,9.4,39.3,7.6,55C4.5,82.1-2.7,87,1.9,98.6
	c2.5,6.4,4.6,4.6,12.7,17.6C23.1,129.7,21.1,132.1,26.5,137.4z"/>
</svg>
