<?xml version="1.0" encoding="iso-8859-1"?>
<!-- Generator: Adobe Illustrator 19.0.0, SVG Export Plug-In . SVG Version: 6.00 Build 0)  -->
<svg version="1.1" id="Capa_1" xmlns="http://www.w3.org/2000/svg" xmlns:xlink="http://www.w3.org/1999/xlink" x="0px" y="0px"
	 viewBox="0 0 512 512" style="enable-background:new 0 0 512 512;" xml:space="preserve">
<circle style="fill:#3a808a;" cx="256" cy="256" r="256"/>
<path style="fill:#284d5b;" d="M512,256c0-12.682-0.937-25.144-2.718-37.332L388.202,97.64c-1.483-2.032-4.092-3.099-6.684-2.488
	l-40.61,9.588c-3.276,0.774-5.38,3.96-4.886,7.234l-221.436,52.281h-7.034c-23.743,0-43.17,19.426-43.17,43.169v138.405
	c0,12.518,5.406,23.83,13.991,31.734L208.429,507.57C223.845,510.467,239.742,512,256,512C397.385,512,512,397.385,512,256z"/>
<rect x="108.609" y="137.991" transform="matrix(-0.9732 0.2298 -0.2298 -0.9732 480.5125 234.3442)" style="fill:#FFFFFF;" width="236.001" height="14.324"/>
<polygon style="fill:#FFF5CA;" points="343.11,125.02 256,145.59 256,130.87 339.82,111.08 "/>
<path style="fill:#ffa333;" d="M387.529,120.613l-40.61,9.588c-3.45,0.814-6.938-1.342-7.753-4.791l-3.05-12.917
	c-0.814-3.449,1.342-6.938,4.791-7.753l40.611-9.588c3.449-0.814,6.938,1.341,7.752,4.791l3.05,12.917
	C393.134,116.31,390.979,119.799,387.529,120.613z"/>
<path style="fill:#ffa333;" d="M404.448,389H107.552c-23.743,0-43.17-19.426-43.17-43.169V207.425
	c0-23.743,19.426-43.169,43.17-43.169h296.896c23.743,0,43.169,19.426,43.169,43.169V345.83
	C447.617,369.574,428.191,389,404.448,389z"/>
<path style="fill:#ffa333;" d="M447.62,207.43v138.4c0,23.74-19.43,43.17-43.17,43.17H256V164.26h148.45
	C428.19,164.26,447.62,183.68,447.62,207.43z"/>
<g>
	<path style="fill:#FFFFFF;" d="M95.676,276.628c0,3.109,0.217,6.166,0.594,9.172h144.716c0.377-3.007,0.594-6.063,0.594-9.172
		s-0.217-6.166-0.594-9.172H96.271C95.893,270.462,95.676,273.519,95.676,276.628z"/>
	<path style="fill:#FFFFFF;" d="M168.628,203.676c-18.269,0-34.955,6.731-47.753,17.827h95.506
		C203.583,210.406,186.897,203.676,168.628,203.676z"/>
	<path style="fill:#FFFFFF;" d="M168.628,349.58c18.269,0,34.955-6.731,47.753-17.827h-95.506
		C133.674,342.849,150.36,349.58,168.628,349.58z"/>
	<path style="fill:#FFFFFF;" d="M108.514,317.948h120.229c3.856-5.599,6.941-11.764,9.124-18.344H99.39
		C101.573,306.184,104.658,312.35,108.514,317.948z"/>
	<path style="fill:#FFFFFF;" d="M108.514,235.307c-3.856,5.599-6.941,11.764-9.124,18.344h138.477
		c-2.183-6.58-5.268-12.745-9.124-18.344H108.514z"/>
</g>
<rect x="278.07" y="216.15" style="fill:#FF8A00;" width="135.71" height="38.36"/>
<g>
	<circle style="fill:#FFF5CA;" cx="312.19" cy="319.69" r="26.486"/>
	<circle style="fill:#FFF5CA;" cx="379.66" cy="319.69" r="26.485"/>
</g>
<g>
	<rect x="294.43" y="314.32" style="fill:#FF8A00;" width="35.514" height="10.736"/>
	
		<rect x="361.897" y="314.321" transform="matrix(-0.7071 0.7071 -0.7071 -0.7071 874.1639 277.2872)" style="fill:#FF8A00;" width="35.514" height="10.736"/>
</g>
<g>
</g>
<g>
</g>
<g>
</g>
<g>
</g>
<g>
</g>
<g>
</g>
<g>
</g>
<g>
</g>
<g>
</g>
<g>
</g>
<g>
</g>
<g>
</g>
<g>
</g>
<g>
</g>
<g>
</g>
</svg>
